<mxfile host="app.diagrams.net" modified="2023-07-25T07:59:22.686Z" agent="Mozilla/5.0 (Macintosh; Intel Mac OS X 10_15_7) AppleWebKit/537.36 (KHTML, like Gecko) Chrome/109.0.0.0 Safari/537.36" etag="V8tO3eRlU_2KMPLeoUO3" version="21.6.1" type="github">
  <diagram id="C5RBs43oDa-KdzZeNtuy" name="Page-1">
    <mxGraphModel dx="1354" dy="702" grid="1" gridSize="10" guides="1" tooltips="1" connect="1" arrows="1" fold="1" page="1" pageScale="1" pageWidth="827" pageHeight="1169" math="0" shadow="0">
      <root>
        <mxCell id="WIyWlLk6GJQsqaUBKTNV-0" />
        <mxCell id="WIyWlLk6GJQsqaUBKTNV-1" parent="WIyWlLk6GJQsqaUBKTNV-0" />
        <mxCell id="Q7syjR6SLuBlEBHo_J01-30" value="" style="rounded=0;whiteSpace=wrap;html=1;" vertex="1" parent="WIyWlLk6GJQsqaUBKTNV-1">
          <mxGeometry x="130" y="970" width="490" height="210" as="geometry" />
        </mxCell>
        <mxCell id="Q7syjR6SLuBlEBHo_J01-12" value="" style="rounded=0;whiteSpace=wrap;html=1;" vertex="1" parent="WIyWlLk6GJQsqaUBKTNV-1">
          <mxGeometry x="170" y="540" width="460" height="220" as="geometry" />
        </mxCell>
        <mxCell id="Q7syjR6SLuBlEBHo_J01-2" value="" style="edgeStyle=orthogonalEdgeStyle;rounded=0;orthogonalLoop=1;jettySize=auto;html=1;" edge="1" parent="WIyWlLk6GJQsqaUBKTNV-1" source="Q7syjR6SLuBlEBHo_J01-0" target="Q7syjR6SLuBlEBHo_J01-1">
          <mxGeometry relative="1" as="geometry" />
        </mxCell>
        <mxCell id="Q7syjR6SLuBlEBHo_J01-0" value="Done KYC" style="rounded=1;whiteSpace=wrap;html=1;" vertex="1" parent="WIyWlLk6GJQsqaUBKTNV-1">
          <mxGeometry x="10" y="820" width="120" height="60" as="geometry" />
        </mxCell>
        <mxCell id="Q7syjR6SLuBlEBHo_J01-4" value="" style="edgeStyle=orthogonalEdgeStyle;rounded=0;orthogonalLoop=1;jettySize=auto;html=1;" edge="1" parent="WIyWlLk6GJQsqaUBKTNV-1" source="Q7syjR6SLuBlEBHo_J01-1" target="Q7syjR6SLuBlEBHo_J01-3">
          <mxGeometry relative="1" as="geometry" />
        </mxCell>
        <mxCell id="Q7syjR6SLuBlEBHo_J01-1" value="Create IBAN" style="whiteSpace=wrap;html=1;rounded=1;" vertex="1" parent="WIyWlLk6GJQsqaUBKTNV-1">
          <mxGeometry x="210" y="820" width="120" height="60" as="geometry" />
        </mxCell>
        <mxCell id="Q7syjR6SLuBlEBHo_J01-6" value="" style="edgeStyle=orthogonalEdgeStyle;rounded=0;orthogonalLoop=1;jettySize=auto;html=1;" edge="1" parent="WIyWlLk6GJQsqaUBKTNV-1" source="Q7syjR6SLuBlEBHo_J01-3" target="Q7syjR6SLuBlEBHo_J01-5">
          <mxGeometry relative="1" as="geometry" />
        </mxCell>
        <mxCell id="Q7syjR6SLuBlEBHo_J01-3" value="Tribe: Creates IBAN" style="whiteSpace=wrap;html=1;rounded=1;" vertex="1" parent="WIyWlLk6GJQsqaUBKTNV-1">
          <mxGeometry x="210" y="580" width="120" height="60" as="geometry" />
        </mxCell>
        <mxCell id="Q7syjR6SLuBlEBHo_J01-8" value="" style="edgeStyle=orthogonalEdgeStyle;rounded=0;orthogonalLoop=1;jettySize=auto;html=1;" edge="1" parent="WIyWlLk6GJQsqaUBKTNV-1" source="Q7syjR6SLuBlEBHo_J01-5" target="Q7syjR6SLuBlEBHo_J01-7">
          <mxGeometry relative="1" as="geometry" />
        </mxCell>
        <mxCell id="Q7syjR6SLuBlEBHo_J01-5" value="Tribe Webhook: Notify Abrod" style="whiteSpace=wrap;html=1;rounded=1;" vertex="1" parent="WIyWlLk6GJQsqaUBKTNV-1">
          <mxGeometry x="410" y="580" width="120" height="60" as="geometry" />
        </mxCell>
        <mxCell id="Q7syjR6SLuBlEBHo_J01-10" value="" style="edgeStyle=orthogonalEdgeStyle;rounded=0;orthogonalLoop=1;jettySize=auto;html=1;" edge="1" parent="WIyWlLk6GJQsqaUBKTNV-1" source="Q7syjR6SLuBlEBHo_J01-7" target="Q7syjR6SLuBlEBHo_J01-9">
          <mxGeometry relative="1" as="geometry" />
        </mxCell>
        <mxCell id="Q7syjR6SLuBlEBHo_J01-7" value="Response: [id, status, IBAN]" style="whiteSpace=wrap;html=1;rounded=1;" vertex="1" parent="WIyWlLk6GJQsqaUBKTNV-1">
          <mxGeometry x="400" y="670" width="140" height="60" as="geometry" />
        </mxCell>
        <mxCell id="Q7syjR6SLuBlEBHo_J01-14" value="" style="edgeStyle=orthogonalEdgeStyle;rounded=0;orthogonalLoop=1;jettySize=auto;html=1;" edge="1" parent="WIyWlLk6GJQsqaUBKTNV-1" source="Q7syjR6SLuBlEBHo_J01-9" target="Q7syjR6SLuBlEBHo_J01-13">
          <mxGeometry relative="1" as="geometry" />
        </mxCell>
        <mxCell id="Q7syjR6SLuBlEBHo_J01-9" value="Get IBAN: by ID: Tribe" style="whiteSpace=wrap;html=1;rounded=1;" vertex="1" parent="WIyWlLk6GJQsqaUBKTNV-1">
          <mxGeometry x="390" y="820" width="160" height="60" as="geometry" />
        </mxCell>
        <mxCell id="Q7syjR6SLuBlEBHo_J01-13" value="In-bound/Out-bound&amp;nbsp;&lt;br&gt;enabled" style="whiteSpace=wrap;html=1;rounded=1;" vertex="1" parent="WIyWlLk6GJQsqaUBKTNV-1">
          <mxGeometry x="600" y="820" width="120" height="60" as="geometry" />
        </mxCell>
        <mxCell id="Q7syjR6SLuBlEBHo_J01-17" value="" style="edgeStyle=orthogonalEdgeStyle;rounded=0;orthogonalLoop=1;jettySize=auto;html=1;" edge="1" parent="WIyWlLk6GJQsqaUBKTNV-1" source="Q7syjR6SLuBlEBHo_J01-15" target="Q7syjR6SLuBlEBHo_J01-16">
          <mxGeometry relative="1" as="geometry" />
        </mxCell>
        <mxCell id="Q7syjR6SLuBlEBHo_J01-15" value="Transfers" style="rounded=1;whiteSpace=wrap;html=1;" vertex="1" parent="WIyWlLk6GJQsqaUBKTNV-1">
          <mxGeometry x="220" y="1259" width="120" height="60" as="geometry" />
        </mxCell>
        <mxCell id="Q7syjR6SLuBlEBHo_J01-19" value="" style="edgeStyle=orthogonalEdgeStyle;rounded=0;orthogonalLoop=1;jettySize=auto;html=1;" edge="1" parent="WIyWlLk6GJQsqaUBKTNV-1" source="Q7syjR6SLuBlEBHo_J01-16" target="Q7syjR6SLuBlEBHo_J01-18">
          <mxGeometry relative="1" as="geometry" />
        </mxCell>
        <mxCell id="Q7syjR6SLuBlEBHo_J01-16" value="Out-bound" style="whiteSpace=wrap;html=1;rounded=1;" vertex="1" parent="WIyWlLk6GJQsqaUBKTNV-1">
          <mxGeometry x="220" y="1190" width="120" height="40" as="geometry" />
        </mxCell>
        <mxCell id="Q7syjR6SLuBlEBHo_J01-21" value="" style="edgeStyle=orthogonalEdgeStyle;rounded=0;orthogonalLoop=1;jettySize=auto;html=1;" edge="1" parent="WIyWlLk6GJQsqaUBKTNV-1" source="Q7syjR6SLuBlEBHo_J01-18" target="Q7syjR6SLuBlEBHo_J01-20">
          <mxGeometry relative="1" as="geometry" />
        </mxCell>
        <mxCell id="Q7syjR6SLuBlEBHo_J01-18" value="Request: [IBAN, Sort Code, FName, Email]" style="whiteSpace=wrap;html=1;rounded=1;" vertex="1" parent="WIyWlLk6GJQsqaUBKTNV-1">
          <mxGeometry x="180" y="1080" width="200" height="60" as="geometry" />
        </mxCell>
        <mxCell id="Q7syjR6SLuBlEBHo_J01-23" value="" style="edgeStyle=orthogonalEdgeStyle;rounded=0;orthogonalLoop=1;jettySize=auto;html=1;" edge="1" parent="WIyWlLk6GJQsqaUBKTNV-1" source="Q7syjR6SLuBlEBHo_J01-20" target="Q7syjR6SLuBlEBHo_J01-22">
          <mxGeometry relative="1" as="geometry" />
        </mxCell>
        <mxCell id="Q7syjR6SLuBlEBHo_J01-20" value="Tribe: Initiate Transfer" style="whiteSpace=wrap;html=1;rounded=1;" vertex="1" parent="WIyWlLk6GJQsqaUBKTNV-1">
          <mxGeometry x="190" y="990" width="180" height="60" as="geometry" />
        </mxCell>
        <mxCell id="Q7syjR6SLuBlEBHo_J01-25" value="" style="edgeStyle=orthogonalEdgeStyle;rounded=0;orthogonalLoop=1;jettySize=auto;html=1;" edge="1" parent="WIyWlLk6GJQsqaUBKTNV-1" source="Q7syjR6SLuBlEBHo_J01-22" target="Q7syjR6SLuBlEBHo_J01-24">
          <mxGeometry relative="1" as="geometry" />
        </mxCell>
        <mxCell id="Q7syjR6SLuBlEBHo_J01-22" value="Tribe: Webhook:&lt;br&gt;Notify Abrod" style="whiteSpace=wrap;html=1;rounded=1;" vertex="1" parent="WIyWlLk6GJQsqaUBKTNV-1">
          <mxGeometry x="450" y="990" width="120" height="60" as="geometry" />
        </mxCell>
        <mxCell id="Q7syjR6SLuBlEBHo_J01-27" value="" style="edgeStyle=orthogonalEdgeStyle;rounded=0;orthogonalLoop=1;jettySize=auto;html=1;" edge="1" parent="WIyWlLk6GJQsqaUBKTNV-1" source="Q7syjR6SLuBlEBHo_J01-24" target="Q7syjR6SLuBlEBHo_J01-26">
          <mxGeometry relative="1" as="geometry" />
        </mxCell>
        <mxCell id="Q7syjR6SLuBlEBHo_J01-24" value="Response:&amp;nbsp; ID, Status, Full detail" style="whiteSpace=wrap;html=1;rounded=1;" vertex="1" parent="WIyWlLk6GJQsqaUBKTNV-1">
          <mxGeometry x="450" y="1100" width="120" height="60" as="geometry" />
        </mxCell>
        <mxCell id="Q7syjR6SLuBlEBHo_J01-29" value="" style="edgeStyle=orthogonalEdgeStyle;rounded=0;orthogonalLoop=1;jettySize=auto;html=1;" edge="1" parent="WIyWlLk6GJQsqaUBKTNV-1" source="Q7syjR6SLuBlEBHo_J01-26" target="Q7syjR6SLuBlEBHo_J01-28">
          <mxGeometry relative="1" as="geometry" />
        </mxCell>
        <mxCell id="Q7syjR6SLuBlEBHo_J01-26" value="Check Balance: Tribe" style="whiteSpace=wrap;html=1;rounded=1;" vertex="1" parent="WIyWlLk6GJQsqaUBKTNV-1">
          <mxGeometry x="420" y="1259" width="180" height="60" as="geometry" />
        </mxCell>
        <mxCell id="Q7syjR6SLuBlEBHo_J01-28" value="Store Balance" style="whiteSpace=wrap;html=1;rounded=1;" vertex="1" parent="WIyWlLk6GJQsqaUBKTNV-1">
          <mxGeometry x="620" y="1259" width="120" height="60" as="geometry" />
        </mxCell>
        <mxCell id="Q7syjR6SLuBlEBHo_J01-33" value="" style="edgeStyle=orthogonalEdgeStyle;rounded=0;orthogonalLoop=1;jettySize=auto;html=1;" edge="1" parent="WIyWlLk6GJQsqaUBKTNV-1" source="Q7syjR6SLuBlEBHo_J01-31" target="Q7syjR6SLuBlEBHo_J01-32">
          <mxGeometry relative="1" as="geometry" />
        </mxCell>
        <mxCell id="Q7syjR6SLuBlEBHo_J01-31" value="External Source" style="rounded=1;whiteSpace=wrap;html=1;" vertex="1" parent="WIyWlLk6GJQsqaUBKTNV-1">
          <mxGeometry x="620" y="1580" width="120" height="60" as="geometry" />
        </mxCell>
        <mxCell id="Q7syjR6SLuBlEBHo_J01-37" value="" style="edgeStyle=orthogonalEdgeStyle;rounded=0;orthogonalLoop=1;jettySize=auto;html=1;" edge="1" parent="WIyWlLk6GJQsqaUBKTNV-1" source="Q7syjR6SLuBlEBHo_J01-32" target="Q7syjR6SLuBlEBHo_J01-36">
          <mxGeometry relative="1" as="geometry" />
        </mxCell>
        <mxCell id="Q7syjR6SLuBlEBHo_J01-32" value="Inbound" style="whiteSpace=wrap;html=1;rounded=1;" vertex="1" parent="WIyWlLk6GJQsqaUBKTNV-1">
          <mxGeometry x="620" y="1490" width="120" height="60" as="geometry" />
        </mxCell>
        <mxCell id="Q7syjR6SLuBlEBHo_J01-39" value="" style="edgeStyle=orthogonalEdgeStyle;rounded=0;orthogonalLoop=1;jettySize=auto;html=1;" edge="1" parent="WIyWlLk6GJQsqaUBKTNV-1" source="Q7syjR6SLuBlEBHo_J01-36" target="Q7syjR6SLuBlEBHo_J01-38">
          <mxGeometry relative="1" as="geometry" />
        </mxCell>
        <mxCell id="Q7syjR6SLuBlEBHo_J01-36" value="Tribe Webhook: Notify Abrod" style="whiteSpace=wrap;html=1;rounded=1;" vertex="1" parent="WIyWlLk6GJQsqaUBKTNV-1">
          <mxGeometry x="450" y="1490" width="120" height="60" as="geometry" />
        </mxCell>
        <mxCell id="Q7syjR6SLuBlEBHo_J01-40" value="" style="edgeStyle=orthogonalEdgeStyle;rounded=0;orthogonalLoop=1;jettySize=auto;html=1;" edge="1" parent="WIyWlLk6GJQsqaUBKTNV-1" source="Q7syjR6SLuBlEBHo_J01-38" target="Q7syjR6SLuBlEBHo_J01-26">
          <mxGeometry relative="1" as="geometry" />
        </mxCell>
        <mxCell id="Q7syjR6SLuBlEBHo_J01-38" value="Response:&amp;nbsp; ID, Status, Full detail" style="whiteSpace=wrap;html=1;rounded=1;" vertex="1" parent="WIyWlLk6GJQsqaUBKTNV-1">
          <mxGeometry x="450" y="1400" width="120" height="60" as="geometry" />
        </mxCell>
        <mxCell id="Q7syjR6SLuBlEBHo_J01-49" value="" style="edgeStyle=orthogonalEdgeStyle;rounded=0;orthogonalLoop=1;jettySize=auto;html=1;" edge="1" parent="WIyWlLk6GJQsqaUBKTNV-1" source="Q7syjR6SLuBlEBHo_J01-41" target="Q7syjR6SLuBlEBHo_J01-48">
          <mxGeometry relative="1" as="geometry" />
        </mxCell>
        <mxCell id="Q7syjR6SLuBlEBHo_J01-41" value="Fund" style="rounded=1;whiteSpace=wrap;html=1;" vertex="1" parent="WIyWlLk6GJQsqaUBKTNV-1">
          <mxGeometry x="80" y="2000" width="120" height="60" as="geometry" />
        </mxCell>
        <mxCell id="Q7syjR6SLuBlEBHo_J01-58" value="" style="edgeStyle=orthogonalEdgeStyle;rounded=0;orthogonalLoop=1;jettySize=auto;html=1;" edge="1" parent="WIyWlLk6GJQsqaUBKTNV-1" source="Q7syjR6SLuBlEBHo_J01-45" target="Q7syjR6SLuBlEBHo_J01-57">
          <mxGeometry relative="1" as="geometry" />
        </mxCell>
        <mxCell id="Q7syjR6SLuBlEBHo_J01-62" value="" style="edgeStyle=orthogonalEdgeStyle;rounded=0;orthogonalLoop=1;jettySize=auto;html=1;" edge="1" parent="WIyWlLk6GJQsqaUBKTNV-1" source="Q7syjR6SLuBlEBHo_J01-45" target="Q7syjR6SLuBlEBHo_J01-61">
          <mxGeometry relative="1" as="geometry" />
        </mxCell>
        <mxCell id="Q7syjR6SLuBlEBHo_J01-45" value="Wallet" style="rounded=1;whiteSpace=wrap;html=1;" vertex="1" parent="WIyWlLk6GJQsqaUBKTNV-1">
          <mxGeometry x="280" y="2000" width="120" height="60" as="geometry" />
        </mxCell>
        <mxCell id="Q7syjR6SLuBlEBHo_J01-51" value="" style="edgeStyle=orthogonalEdgeStyle;rounded=0;orthogonalLoop=1;jettySize=auto;html=1;" edge="1" parent="WIyWlLk6GJQsqaUBKTNV-1" source="Q7syjR6SLuBlEBHo_J01-48" target="Q7syjR6SLuBlEBHo_J01-50">
          <mxGeometry relative="1" as="geometry" />
        </mxCell>
        <mxCell id="Q7syjR6SLuBlEBHo_J01-48" value="Initiates Transfer from IBAN" style="whiteSpace=wrap;html=1;rounded=1;" vertex="1" parent="WIyWlLk6GJQsqaUBKTNV-1">
          <mxGeometry x="80" y="1870" width="120" height="60" as="geometry" />
        </mxCell>
        <mxCell id="Q7syjR6SLuBlEBHo_J01-53" value="" style="edgeStyle=orthogonalEdgeStyle;rounded=0;orthogonalLoop=1;jettySize=auto;html=1;" edge="1" parent="WIyWlLk6GJQsqaUBKTNV-1" source="Q7syjR6SLuBlEBHo_J01-50" target="Q7syjR6SLuBlEBHo_J01-52">
          <mxGeometry relative="1" as="geometry" />
        </mxCell>
        <mxCell id="Q7syjR6SLuBlEBHo_J01-50" value="to: Abrod Custodian Account" style="whiteSpace=wrap;html=1;rounded=1;" vertex="1" parent="WIyWlLk6GJQsqaUBKTNV-1">
          <mxGeometry x="80" y="1730" width="120" height="60" as="geometry" />
        </mxCell>
        <mxCell id="Q7syjR6SLuBlEBHo_J01-55" value="" style="edgeStyle=orthogonalEdgeStyle;rounded=0;orthogonalLoop=1;jettySize=auto;html=1;" edge="1" parent="WIyWlLk6GJQsqaUBKTNV-1" source="Q7syjR6SLuBlEBHo_J01-52" target="Q7syjR6SLuBlEBHo_J01-54">
          <mxGeometry relative="1" as="geometry" />
        </mxCell>
        <mxCell id="Q7syjR6SLuBlEBHo_J01-52" value="Tribe Webhook: Notify Abrod" style="whiteSpace=wrap;html=1;rounded=1;" vertex="1" parent="WIyWlLk6GJQsqaUBKTNV-1">
          <mxGeometry x="280" y="1730" width="120" height="60" as="geometry" />
        </mxCell>
        <mxCell id="Q7syjR6SLuBlEBHo_J01-56" value="" style="edgeStyle=orthogonalEdgeStyle;rounded=0;orthogonalLoop=1;jettySize=auto;html=1;" edge="1" parent="WIyWlLk6GJQsqaUBKTNV-1" source="Q7syjR6SLuBlEBHo_J01-54" target="Q7syjR6SLuBlEBHo_J01-45">
          <mxGeometry relative="1" as="geometry" />
        </mxCell>
        <mxCell id="Q7syjR6SLuBlEBHo_J01-54" value="Response:&amp;nbsp; ID, Status, Full detail" style="whiteSpace=wrap;html=1;rounded=1;" vertex="1" parent="WIyWlLk6GJQsqaUBKTNV-1">
          <mxGeometry x="280" y="1870" width="120" height="60" as="geometry" />
        </mxCell>
        <mxCell id="Q7syjR6SLuBlEBHo_J01-60" value="" style="edgeStyle=orthogonalEdgeStyle;rounded=0;orthogonalLoop=1;jettySize=auto;html=1;" edge="1" parent="WIyWlLk6GJQsqaUBKTNV-1" source="Q7syjR6SLuBlEBHo_J01-57" target="Q7syjR6SLuBlEBHo_J01-59">
          <mxGeometry relative="1" as="geometry" />
        </mxCell>
        <mxCell id="Q7syjR6SLuBlEBHo_J01-57" value="Invest" style="whiteSpace=wrap;html=1;rounded=1;" vertex="1" parent="WIyWlLk6GJQsqaUBKTNV-1">
          <mxGeometry x="440" y="2000" width="120" height="60" as="geometry" />
        </mxCell>
        <mxCell id="Q7syjR6SLuBlEBHo_J01-59" value="Deducted from User Wallet&lt;br style=&quot;border-color: var(--border-color);&quot;&gt;[within Abrod]&lt;br style=&quot;border-color: var(--border-color);&quot;&gt;[No Tribe Involvement]" style="whiteSpace=wrap;html=1;rounded=1;" vertex="1" parent="WIyWlLk6GJQsqaUBKTNV-1">
          <mxGeometry x="610" y="2000" width="170" height="60" as="geometry" />
        </mxCell>
        <mxCell id="Q7syjR6SLuBlEBHo_J01-64" value="" style="edgeStyle=orthogonalEdgeStyle;rounded=0;orthogonalLoop=1;jettySize=auto;html=1;" edge="1" parent="WIyWlLk6GJQsqaUBKTNV-1" source="Q7syjR6SLuBlEBHo_J01-61" target="Q7syjR6SLuBlEBHo_J01-63">
          <mxGeometry relative="1" as="geometry" />
        </mxCell>
        <mxCell id="Q7syjR6SLuBlEBHo_J01-61" value="Initiates Transfer from Custodian" style="whiteSpace=wrap;html=1;rounded=1;" vertex="1" parent="WIyWlLk6GJQsqaUBKTNV-1">
          <mxGeometry x="280" y="2160" width="120" height="60" as="geometry" />
        </mxCell>
        <mxCell id="Q7syjR6SLuBlEBHo_J01-66" value="" style="edgeStyle=orthogonalEdgeStyle;rounded=0;orthogonalLoop=1;jettySize=auto;html=1;" edge="1" parent="WIyWlLk6GJQsqaUBKTNV-1" source="Q7syjR6SLuBlEBHo_J01-63" target="Q7syjR6SLuBlEBHo_J01-65">
          <mxGeometry relative="1" as="geometry" />
        </mxCell>
        <mxCell id="Q7syjR6SLuBlEBHo_J01-63" value="to: User IBAN" style="whiteSpace=wrap;html=1;rounded=1;" vertex="1" parent="WIyWlLk6GJQsqaUBKTNV-1">
          <mxGeometry x="280" y="2370" width="120" height="60" as="geometry" />
        </mxCell>
        <mxCell id="Q7syjR6SLuBlEBHo_J01-68" value="" style="edgeStyle=orthogonalEdgeStyle;rounded=0;orthogonalLoop=1;jettySize=auto;html=1;" edge="1" parent="WIyWlLk6GJQsqaUBKTNV-1" source="Q7syjR6SLuBlEBHo_J01-65" target="Q7syjR6SLuBlEBHo_J01-67">
          <mxGeometry relative="1" as="geometry" />
        </mxCell>
        <mxCell id="Q7syjR6SLuBlEBHo_J01-65" value="Tribe Webhook: Notify Abrod" style="whiteSpace=wrap;html=1;rounded=1;" vertex="1" parent="WIyWlLk6GJQsqaUBKTNV-1">
          <mxGeometry x="80" y="2370" width="120" height="60" as="geometry" />
        </mxCell>
        <mxCell id="Q7syjR6SLuBlEBHo_J01-70" value="" style="edgeStyle=orthogonalEdgeStyle;rounded=0;orthogonalLoop=1;jettySize=auto;html=1;" edge="1" parent="WIyWlLk6GJQsqaUBKTNV-1" source="Q7syjR6SLuBlEBHo_J01-67" target="Q7syjR6SLuBlEBHo_J01-69">
          <mxGeometry relative="1" as="geometry" />
        </mxCell>
        <mxCell id="Q7syjR6SLuBlEBHo_J01-67" value="Response:&amp;nbsp; ID, Status, Full detail" style="whiteSpace=wrap;html=1;rounded=1;" vertex="1" parent="WIyWlLk6GJQsqaUBKTNV-1">
          <mxGeometry x="80" y="2270" width="120" height="60" as="geometry" />
        </mxCell>
        <mxCell id="Q7syjR6SLuBlEBHo_J01-69" value="Deducted from User Wallet&lt;br style=&quot;border-color: var(--border-color);&quot;&gt;[within Abrod]&lt;br style=&quot;border-color: var(--border-color);&quot;&gt;[No Tribe Involvement]" style="whiteSpace=wrap;html=1;rounded=1;" vertex="1" parent="WIyWlLk6GJQsqaUBKTNV-1">
          <mxGeometry x="60" y="2130" width="160" height="60" as="geometry" />
        </mxCell>
      </root>
    </mxGraphModel>
  </diagram>
</mxfile>
